<svg class="header-image" preserveAspectRatio="xMidYMid meet" xmlns="http://www.w3.org/2000/svg" viewBox="0 0 562 372">	<path d="M 360.4426 10.2471 C 360.4426 10.2471 387.3885 -10.9318 420.201 10.2471 L 543.4966 83.5282 C 543.4966 83.5282 576.7062 100.6298 537.3333 121.7094 L 204.0356 335.6875 C 204.0356 335.6875 176.3937 354.5791 142.9846 329.721 L 18.4961 243.2156 C 18.4961 243.2156 -10.7366 225.3176 18.4961 206.6246 L 360.4426 10.2471 L 360.4426 10.2471 Z" />	<path d="M 60.798 198.7773 C 60.3917 198.4996 60.4078 198.071 60.8338 197.8249 L 351.0171 30.0838 C 351.4433 29.8374 352.1375 29.8428 352.5596 30.096 L 512.3025 125.8253 C 512.7245 126.0782 512.7302 126.5012 512.3147 126.7652 L 224.5533 309.6705 C 224.1377 309.9345 223.4656 309.9234 223.0591 309.6458 L 60.798 198.7773 L 60.798 198.7773 Z" />	<path id="ellipse38" d="M 133.1414 267.9744 C 133.1414 275.635 123.0917 281.8452 110.6947 281.8452 C 98.2977 281.8452 88.248 275.635 88.248 267.9744 C 88.248 260.3138 98.2977 254.1037 110.6947 254.1037 C 123.0917 254.1037 133.1414 260.3138 133.1414 267.9744 L 133.1414 267.9744 Z" />	<path d="M 545.9543 85.0119 C 564.5701 94.7483 561.3446 108.0881 561.3446 108.0881 L 560.3005 123.7486 C 560.5989 134.4872 545.5349 142.2429 545.5349 142.2429 L 211.5932 358.2088 C 171.1742 385.2045 142.5378 361.6392 142.5378 361.6392 L 9.0506 266.7813 C 9.0506 266.7813 0.8474 260.4425 0.4746 251.6428 L 0.4746 229.4197 C 0.4746 229.4197 -1.1061 218.0099 17.6764 207.1595 " />	<path d="M 469.9173 55.4887 C 469.9173 57.1362 467.6914 58.4717 464.9456 58.4717 C 462.1998 58.4717 459.9739 57.1362 459.9739 55.4887 C 459.9739 53.8413 462.1998 52.5058 464.9456 52.5058 C 467.6914 52.5058 469.9173 53.8413 469.9173 55.4887 L 469.9173 55.4887 Z" />	<path d="M 431.9341 48.3296 C 431.9341 49.428 430.5095 50.3184 428.7523 50.3184 C 426.9949 50.3184 425.5703 49.428 425.5703 48.3296 C 425.5703 47.2313 426.9949 46.3409 428.7523 46.3409 C 430.5095 46.3409 431.9341 47.2313 431.9341 48.3296 L 431.9341 48.3296 Z" />	<path d="M 467.3314 71.7434 C 466.7643 72.684 465.5419 72.9864 464.6014 72.4194 L 437.1848 55.8846 C 436.2443 55.3172 435.9418 54.0948 436.5089 53.1546 L 436.5089 53.1546 C 437.0759 52.214 438.298 51.9113 439.2388 52.4786 L 466.6555 69.0134 C 467.5963 69.5805 467.8985 70.8029 467.3314 71.7434 L 467.3314 71.7434 L 467.3314 71.7434 Z" />	<path id="stroke-medium" d="M 369.2415 249.7725 C 368.0734 251.3915 366.3954 252.1766 365.4936 251.5259 C 364.5917 250.8753 364.8076 249.0353 365.9756 247.4163 C 367.1437 245.7972 368.8217 245.0122 369.7236 245.6628 C 370.6254 246.3134 370.4095 248.1534 369.2415 249.7725 L 369.2415 249.7725 Z" />	<path id="stroke-medium2" d="M 11.8508 211.2605 C 11.8508 211.2605 -13.4267 229.0887 15.2097 248.0937 L 142.731 337.4332 C 142.731 337.4332 174.6486 360.9985 206.7154 339.8196 L 544.0875 124.3011 C 544.0875 124.3011 574.3644 106.7017 548.4999 87.0731 " />	<path id="stroke-medium3" d="M 20.705 257.2397 C 22.8915 261.7576 23.2274 267.555 20.0615 269.0873 C 17.2077 270.4685 12.869 267.4035 10.3711 262.2415 C 7.8723 257.0795 8.1604 251.7755 11.0143 250.3941 C 13.8677 249.013 18.2064 252.0777 20.705 257.2397 L 20.705 257.2397 Z" />	<path id="stroke-medium4" d="M 540.6056 119.8695 L 543.5575 124.2783 L 543.1846 143.763 " />	<path id="stroke-medium5" d="M 210.9891 330.7644 L 213.9411 335.1732 L 213.2613 357.1302 " />	<path id="stroke-medium6" d="M 66.8205 292.037 C 66.8205 292.037 81.0659 301.7737 85.7125 305.162 C 87.6072 306.5437 91.1564 309.3256 89.093 313.9122 C 88.7876 314.5911 87.5396 315.2545 85.3643 313.4648 L 66.8203 300.1906 C 66.8203 300.1906 62.5943 297.3565 63.0916 293.8766 C 63.0918 293.8766 63.2908 290.1974 66.8205 292.037 L 66.8205 292.037 Z" />	<path id="stroke-medium7" d="M 58.2283 286.8436 C 59.1533 288.8959 58.7126 291.0962 57.2439 291.7581 C 55.7753 292.42 53.8349 291.2929 52.91 289.2406 C 51.985 287.1883 52.4257 284.988 53.8943 284.3261 C 55.3629 283.6642 57.3034 284.7914 58.2283 286.8436 L 58.2283 286.8436 Z" />	<path id="stroke-medium8" d="M 99.6537 316.7656 C 100.5786 318.8179 100.1597 321.0083 98.718 321.6581 C 97.2762 322.3079 95.3576 321.171 94.4326 319.1187 C 93.5077 317.0664 93.9266 314.8759 95.3683 314.2261 C 96.8101 313.5763 98.7287 314.7133 99.6537 316.7656 L 99.6537 316.7656 Z" />	<path id="amex" d="M 333.2934 213.3737 L 338.3523 210.1887 C 338.6744 209.3916 338.4686 208.6299 337.7352 207.9036 C 337.0021 207.1775 336.1927 206.4998 335.3069 205.8704 C 334.569 205.346 333.9391 204.8528 333.4256 204.3855 C 332.9121 203.9182 332.9659 203.4899 333.578 203.1058 C 334.19 202.7219 334.7527 202.6101 335.2742 202.7759 C 335.7958 202.9417 336.282 203.1847 336.7245 203.4989 L 342.483 207.5882 L 345.2326 205.8572 L 338.8115 201.3011 C 337.632 200.4642 336.2523 199.9503 334.6807 199.7539 C 333.1089 199.5575 331.6391 199.8877 330.2621 200.7502 C 328.5779 201.805 327.9066 202.7619 328.2573 203.6262 C 328.6082 204.491 329.2273 205.3416 330.1065 206.1721 C 331.1393 206.9067 332.0562 207.6159 332.8653 208.2941 C 333.6748 208.9726 333.7006 209.5501 332.9341 210.0321 C 332.474 210.3214 331.9784 210.3799 331.4556 210.2135 C 330.933 210.0471 330.4543 209.8091 330.0112 209.4938 L 324.0366 205.241 L 321.0413 207.1174 L 327.0172 211.3748 C 327.9034 212.0062 328.8597 212.5388 329.903 212.973 C 330.9464 213.4072 332.0822 213.5409 333.2934 213.3737 L 333.2934 213.3737 L 333.2934 213.3737 ZM 314.6354 202.5535 C 316.1069 203.6018 317.6247 204.2719 319.1967 204.5692 C 320.7687 204.8665 322.4034 204.4892 324.0916 203.4323 C 325.7786 202.3761 326.4097 201.3903 325.9859 200.4746 C 325.5624 199.5593 324.8357 198.7359 323.806 198.0041 C 322.9298 197.1768 322.0836 196.4732 321.2752 195.8987 C 320.4671 195.3244 320.4503 194.8014 321.2161 194.3238 C 321.8286 193.9418 322.3908 193.8306 322.9111 193.9959 C 323.4314 194.1613 323.916 194.4034 324.3568 194.7164 L 330.093 198.7897 L 332.8448 197.0675 L 326.4486 192.529 C 325.2737 191.6954 323.8978 191.1833 322.3289 190.9871 C 320.7601 190.7909 319.2911 191.1191 317.913 191.9772 C 316.2275 193.0268 315.5537 193.9791 315.9009 194.8398 C 316.2484 195.7008 316.8636 196.5479 317.7386 197.3751 C 318.7675 198.1069 319.6805 198.8132 320.4862 199.4887 C 321.2921 200.1645 321.316 200.7395 320.5487 201.2191 C 320.0883 201.5069 319.5932 201.565 319.0718 201.3991 C 318.5504 201.2332 318.0732 200.9961 317.6319 200.682 L 311.4602 196.289 L 308.4626 198.1557 L 314.6354 202.5535 L 314.6354 202.5535 L 314.6354 202.5535 ZM 333.8681 176.4965 L 329.4808 173.3982 L 337.1345 171.5569 L 333.8681 176.4965 L 333.8681 176.4965 L 333.8681 176.4965 ZM 306.7011 196.9008 L 309.4686 195.1788 L 302.2253 189.7154 L 304.9905 188.0009 L 312.243 193.1592 L 315.0035 191.4417 L 307.7523 186.2886 L 310.281 184.7208 L 317.751 190.0254 L 320.5051 188.3118 L 309.9661 180.834 L 296.1529 189.3858 L 306.7011 196.9008 L 306.7011 196.9008 L 306.7011 196.9008 ZM 347.1009 193.738 L 360.7445 185.1818 L 357.6559 183.0056 L 348.1121 188.9819 L 351.9278 178.9696 L 347.0889 175.5602 L 334.1176 183.6421 L 341.8185 171.8467 L 337.2141 168.6025 L 321.6877 172.1253 L 320.3743 171.1969 C 319.0615 170.269 318.5994 169.4384 318.9956 168.7109 C 319.3917 167.9838 320.2018 167.2477 321.4175 166.4971 C 322.6325 165.7468 323.6469 165.3131 324.4695 165.1907 C 325.292 165.0683 326.0747 165.1632 326.8094 165.4807 C 327.5441 165.7982 328.3085 166.2369 329.1106 166.8026 L 331.6317 168.5805 L 334.5859 166.7508 L 331.5225 164.5923 C 330.3563 163.7706 329.2171 163.1682 328.1128 162.7907 C 327.0087 162.4132 325.8664 162.2092 324.6777 162.1728 C 323.4889 162.1363 322.3598 162.2981 321.307 162.6587 C 320.2539 163.0194 319.1279 163.5746 317.9125 164.3239 C 316.8485 164.9799 315.9989 165.6428 315.3806 166.3131 C 314.7621 166.9836 314.4478 167.713 314.4214 168.5007 C 314.4016 169.0917 314.636 169.762 315.1331 170.5171 C 315.6302 171.2726 316.4665 172.066 317.6336 172.8918 L 321.1378 175.3707 L 325.4208 174.4614 L 332.003 179.1139 L 330.1349 181.7356 L 336.7343 186.4043 L 346.9819 180.0094 L 342.6855 190.6144 L 347.1009 193.738 L 347.1009 193.738 L 347.1009 193.738 ZM 299.765 177.2531 C 300.3482 177.6673 300.7395 178.1034 300.9472 178.5562 C 301.155 179.009 300.9565 179.4221 300.3432 179.8009 C 299.7296 180.1798 299.0847 180.2874 298.4167 180.1184 C 297.7488 179.9494 297.1273 179.6549 296.5439 179.2402 L 292.6086 176.443 L 295.8304 174.4591 L 299.765 177.2531 L 299.765 177.2531 L 299.765 177.2531 ZM 309.7634 167.3241 L 323.4405 158.8978 L 320.1699 156.5934 L 306.4899 165.0083 L 309.7634 167.3241 L 309.7634 167.3241 L 309.7634 167.3241 ZM 298.4456 182.4275 C 299.4828 182.7569 300.5616 182.8665 301.6904 182.751 C 302.8189 182.6355 303.7708 182.338 304.5373 181.8638 C 306.2227 180.8212 306.6679 179.7699 305.8826 178.7043 C 305.0977 177.6393 304.1262 176.6903 302.9595 175.8625 L 295.532 170.5923 L 281.7063 179.0933 L 284.7652 181.2727 L 289.8434 178.1457 L 293.3419 180.6344 C 294.363 181.3608 294.8983 181.9458 294.9558 182.3951 C 295.0134 182.8445 294.4311 183.4519 293.2008 184.2118 L 290.8919 185.6376 L 294.179 187.9795 L 296.9488 186.2663 C 297.8713 185.6958 298.4936 185.1165 298.8159 184.5285 C 299.1382 183.9407 299.0147 183.2403 298.4456 182.4275 L 298.4456 182.4275 L 298.4456 182.4275 ZM 310.028 153.3454 C 310.463 153.6521 310.8221 154.0055 311.1054 154.4055 C 311.3888 154.8055 311.2268 155.1919 310.6194 155.5646 C 310.0117 155.9375 309.3721 156.0428 308.7089 155.8755 C 308.0457 155.7082 307.4283 155.4172 306.8483 155.0078 L 302.9356 152.2461 L 305.8985 150.4333 L 310.028 153.3454 L 310.028 153.3454 L 310.028 153.3454 ZM 286.0154 167.4893 C 286.451 167.7986 286.7332 168.202 286.8621 168.6996 C 286.9911 169.1973 286.7486 169.6345 286.1346 170.0111 C 285.5205 170.3879 284.8419 170.5156 284.0988 170.3942 C 283.3558 170.2729 282.6938 170.0057 282.1129 169.5928 L 278.1949 166.8074 L 281.8804 164.5529 L 286.0154 167.4893 L 286.0154 167.4893 L 286.0154 167.4893 ZM 308.9621 158.3055 C 309.9921 158.6313 311.0225 158.712 312.0694 158.5481 C 313.1162 158.3842 314.0275 158.0693 314.7866 157.6027 C 316.3042 156.67 316.7414 155.6774 316.1075 154.6307 C 315.474 153.5845 314.5087 152.6046 313.2037 151.6851 L 305.8189 146.4818 L 292.1265 154.847 L 295.1678 156.9986 L 300.197 153.9216 L 303.6753 156.3786 C 305.4159 157.6082 305.8199 158.5521 304.903 159.2106 C 303.9856 159.8694 302.8492 160.6199 301.477 161.462 L 304.5273 163.6199 L 307.2704 161.9342 C 308.184 161.3728 308.7897 160.8512 309.1044 160.37 C 309.419 159.8889 309.377 159.2009 308.9621 158.3055 L 308.9621 158.3055 L 308.9621 158.3055 ZM 269.1478 168.3101 L 269.9119 161.5282 L 280.2179 161.5484 L 269.1478 168.3101 L 269.1478 168.3101 L 269.1478 168.3101 ZM 289.9558 153.3114 L 292.7014 151.6359 L 285.3337 146.4279 L 288.0771 144.7595 L 295.2266 149.8091 L 297.9655 148.1377 L 290.8173 143.093 L 293.3262 141.5672 L 300.6902 146.7603 L 303.6502 144.9538 L 293.261 137.6336 L 279.5577 145.9554 L 289.9558 153.3114 L 289.9558 153.3114 L 289.9558 153.3114 ZM 265.7915 158.5986 L 258.1824 158.3651 L 250.6134 152.9773 L 253.3873 151.2991 L 260.3057 156.2197 L 263.0752 154.5387 L 256.158 149.623 L 258.6948 148.0883 L 266.4765 153.6143 L 265.7915 158.5986 L 265.7915 158.5986 L 265.7915 158.5986 ZM 275.4268 168.5006 L 278.3613 170.5885 C 279.4503 171.3633 280.5844 172.0683 281.7554 172.6976 C 282.9351 173.1293 284.1555 173.3862 285.4247 173.474 C 286.6938 173.5618 288.0236 173.1839 289.4054 172.335 C 291.2463 171.2039 291.9639 170.089 291.5594 168.9903 C 291.1552 167.8922 290.2269 166.8281 288.775 165.798 L 278.7751 158.7025 L 270.0487 158.5819 L 270.971 153.1652 L 258.4384 144.2728 L 244.5814 152.6439 L 256.9077 161.4258 L 265.4342 161.3912 L 264.7178 166.99 L 270.8057 171.3273 L 275.4268 168.5006 L 275.4268 168.5006 L 275.4268 168.5006 ZM 259.6689 124.097 L 255.3832 121.0705 L 263.0116 119.2956 L 259.6689 124.097 L 259.6689 124.097 L 259.6689 124.097 ZM 277.1796 144.2731 L 290.8849 135.9594 L 285.7069 132.3111 L 272.6828 135.3852 L 277.9558 126.8497 L 273.0136 123.3676 L 259.9813 131.2059 L 267.6505 119.5887 L 263.1526 116.4195 L 243.8595 120.7012 L 247.2827 123.1229 L 251.3349 122.0962 L 257.7645 126.6407 L 256.0717 129.3405 L 262.3032 133.7489 L 273.0558 127.2725 L 266.8234 136.9467 L 269.6248 138.9285 L 284.9003 135.6253 L 274.1555 142.1337 L 277.1796 144.2731 L 277.1796 144.2731 L 277.1796 144.2731 ZM 179.1366 159.3433 L 291 240 L 329.6069 215.6945 C 328.56 215.3609 327.5489 214.9497 326.5821 214.4667 C 325.6154 213.9839 324.7668 213.482 324.0282 212.9554 L 315.8412 207.1177 L 317.226 206.2512 C 316.1753 206.12 315.1211 205.8376 314.0804 205.4046 C 313.0399 204.9716 312.1602 204.4931 311.4245 203.9685 L 285.4906 185.477 L 290.1123 182.6263 C 290.2662 182.5314 290.3368 182.434 290.3408 182.3346 C 290.3448 182.2353 290.2822 182.1339 290.1364 182.0301 L 289.6988 181.7185 L 284.6151 184.8528 L 276.0927 178.776 L 281.41 175.511 C 280.3749 175.1824 279.4512 174.7855 278.6474 174.3153 C 277.8438 173.8451 277.0831 173.3488 276.3568 172.8316 L 275.4854 172.2112 L 270.8596 175.0446 L 260.6364 167.7552 L 261.0417 164.0653 L 255.4288 164.0421 L 238.9949 152.3242 L 258.398 140.6183 L 275.0293 152.4094 L 274.4238 155.9184 L 280.0143 155.9435 L 291.3135 163.9544 C 292.0392 164.4688 292.7952 165.061 293.5899 165.7256 C 294.3849 166.3905 294.7713 167.1143 294.7405 167.9025 L 295.8882 167.1976 L 305.932 174.3184 C 306.661 174.8352 307.3138 175.3994 307.8903 176.011 C 308.467 176.6227 308.8179 177.2775 308.9431 177.9752 L 310.0898 177.2661 L 325.6754 188.3158 L 324.5298 189.0294 C 325.4283 189.056 326.3207 189.2819 327.2073 189.707 C 328.094 190.1322 328.831 190.5531 329.4185 190.9696 L 338.0223 197.0694 L 336.8777 197.7866 C 337.9248 197.9175 338.893 198.1962 339.7823 198.623 C 340.6718 199.0497 341.4114 199.4722 342.0012 199.8903 L 347.9788 204.1283 L 408 166.3411 L 296.9567 89 L 251.194 116.3221 L 263.963 113.4263 L 272.1005 119.1553 L 270.8942 121.279 L 273.1729 119.9102 L 282.6248 126.5646 L 279.5492 130.9557 L 286.7151 129.4443 L 316.8008 150.6254 C 317.5258 151.1358 318.1028 151.6417 318.5316 152.1432 C 318.9605 152.6448 319.2382 153.2395 319.3644 153.9275 L 320.5001 153.2297 L 328.7845 159.0621 L 327.6494 159.7623 C 328.8313 159.9947 329.967 160.3945 331.0649 160.9675 C 332.1631 161.5407 333.1534 162.138 334.0279 162.7537 L 346.0768 171.2363 L 345.1261 173.575 L 347.394 172.1637 L 356.4092 178.5106 L 355.2441 180.7031 L 357.5104 179.2859 L 366.3334 185.4975 L 347.236 197.4902 L 338.4016 191.2354 L 339.606 188.1319 L 336.6377 189.9865 L 325.6352 182.1967 L 327.2882 179.4184 L 324.6549 177.5556 L 320.3675 178.4671 C 319.6366 177.9496 318.7498 177.3779 317.7238 176.7528 C 316.6981 176.1277 315.7589 175.4065 314.8896 174.5887 C 314.014 173.9687 313.1744 173.2732 312.379 172.5078 C 311.5838 171.7426 311.0548 170.9639 310.7838 170.1659 L 309.6397 170.8716 L 296.1175 161.2978 L 300.4659 158.6327 C 300.6183 158.5393 300.7304 158.4174 300.8103 158.2727 C 300.8902 158.128 300.8616 158.0073 300.7166 157.9048 L 300.064 157.4434 L 295.0295 160.5275 L 269.0296 142.1192 L 271.323 140.7316 L 268.1666 141.5082 L 262.7783 137.6932 L 263.9962 135.5476 L 261.7017 136.931 L 251.3854 129.627 L 253.0828 126.9262 L 250.5105 125.1066 L 246.4542 126.1357 L 241.103 122.3469 L 179.1366 159.3433 L 179.1366 159.3433 L 179.1366 159.3433 Z" /></svg>